@startuml
interface Pizza{
    name
    dough
    sauce
    toppings

    prepare()
    bake()
    cut()
    box()
    toString()
}

class PizzaStore{
    factory
    orderPizza()
}

class SimplePizzaFactory{
    createPizza()
}

PizzaStore <|-- SimplePizzaFactory

Pizza <|-- CheesePizza
Pizza <|-- ClamPizza
Pizza <|-- PepperoniPizza
Pizza <|-- VeggiePizza

@enduml